<svg width="23" height="23" viewBox="0 0 23 23" fill="none" xmlns="http://www.w3.org/2000/svg">
<path fill-rule="evenodd" clip-rule="evenodd" d="M15.7781 2.54722L15.779 3.23687C18.3133 3.43549 19.9873 5.16239 19.9901 7.81066L20 15.5624C20.0037 18.4497 18.1897 20.2263 15.2821 20.2309L8.1798 20.2401C5.29036 20.2438 3.45369 18.4249 3.45006 15.5293L3.44007 7.86859C3.43644 5.20285 5.05147 3.48055 7.58574 3.2479L7.58483 2.55825C7.58392 2.15365 7.88368 1.84929 8.28335 1.84929C8.68302 1.84837 8.98277 2.15181 8.98368 2.55641L8.98459 3.20009L14.3801 3.19273L14.3792 2.54905C14.3783 2.14446 14.6781 1.84101 15.0777 1.84009C15.4683 1.83917 15.7772 2.14262 15.7781 2.54722ZM4.83984 8.15267L18.5921 8.13428V7.81244C18.5531 5.83543 17.5612 4.79819 15.7808 4.64371L15.7817 5.35176C15.7817 5.74716 15.4738 6.06072 15.0832 6.06072C14.6835 6.06164 14.3829 5.749 14.3829 5.3536L14.382 4.60877L8.98642 4.61612L8.98733 5.36003C8.98733 5.75635 8.68848 6.069 8.28881 6.069C7.88914 6.06992 7.58848 5.75819 7.58848 5.36187L7.58757 4.65383C5.81631 4.8313 4.8362 5.87222 4.83893 7.8667L4.83984 8.15267ZM14.7008 12.332V12.3421C14.7099 12.7651 15.0551 13.086 15.4738 13.0768C15.8826 13.0667 16.2087 12.7163 16.1996 12.2933C16.1805 11.8887 15.8526 11.5586 15.4448 11.5595C15.0269 11.5687 14.6999 11.909 14.7008 12.332ZM15.451 16.4607C15.0332 16.4515 14.6962 16.103 14.6953 15.68C14.6862 15.257 15.0214 14.9067 15.4392 14.8966H15.4483C15.8752 14.8966 16.2213 15.2451 16.2213 15.6773C16.2222 16.1094 15.8771 16.4598 15.451 16.4607ZM10.9584 12.3468C10.9766 12.7698 11.3227 13.0999 11.7405 13.0815C12.1492 13.0622 12.4753 12.7127 12.4572 12.2898C12.4472 11.876 12.1111 11.5541 11.7023 11.555C11.2845 11.5734 10.9575 11.9238 10.9584 12.3468ZM11.7442 16.4194C11.3264 16.4378 10.9812 16.1077 10.9621 15.6847C10.9621 15.2617 11.2882 14.9123 11.706 14.893C12.1148 14.8921 12.4518 15.2139 12.4609 15.6268C12.48 16.0507 12.1529 16.4001 11.7442 16.4194ZM7.21608 12.3789C7.23425 12.8019 7.58032 13.1329 7.99816 13.1136C8.40692 13.0952 8.73301 12.7449 8.71393 12.3219C8.70485 11.9081 8.36876 11.5862 7.9591 11.5872C7.54127 11.6056 7.21517 11.9559 7.21608 12.3789ZM8.00176 16.4239C7.58392 16.4432 7.23875 16.1122 7.21967 15.6892C7.21876 15.2662 7.54577 14.9158 7.9636 14.8975C8.37236 14.8965 8.70935 15.2184 8.71844 15.6322C8.73751 16.0552 8.41142 16.4055 8.00176 16.4239Z" fill="#BAC3CC"/>
</svg>
