<svg width="16" height="17" viewBox="0 0 16 17" fill="none" xmlns="http://www.w3.org/2000/svg">
<path d="M14 7.17017C14 10.5852 10.7869 13.6432 9.06335 15.0379C8.4357 15.5458 7.5643 15.5458 6.93665 15.0379C5.21308 13.6432 2 10.5852 2 7.17017C2 5.57887 2.63214 4.05274 3.75736 2.92753C4.88258 1.80231 6.4087 1.17017 8 1.17017C9.5913 1.17017 11.1174 1.80231 12.2426 2.92753C13.3679 4.05274 14 5.57887 14 7.17017Z" fill="#716E90"/>
<path d="M8 9.17017C9.10457 9.17017 10 8.27474 10 7.17017C10 6.0656 9.10457 5.17017 8 5.17017C6.89543 5.17017 6 6.0656 6 7.17017C6 8.27474 6.89543 9.17017 8 9.17017Z" fill="white"/>
</svg>
