<svg width="18" height="18" viewBox="0 0 18 18" fill="none" xmlns="http://www.w3.org/2000/svg">
<path d="M6.55499 6.07061V4.70498C6.55499 4.34279 6.69887 3.99544 6.95498 3.73934C7.21108 3.48323 7.55843 3.33936 7.92062 3.33936H13.3831C13.7453 3.33936 14.0927 3.48323 14.3488 3.73934C14.6049 3.99544 14.7487 4.34279 14.7487 4.70498V12.8987C14.7487 13.2609 14.6049 13.6083 14.3488 13.8644C14.0927 14.1205 13.7453 14.2644 13.3831 14.2644H8.19374C7.43958 14.2644 6.55499 13.6529 6.55499 12.8987V11.5331" stroke="#635BFF" stroke-width="1.14" stroke-linecap="round" stroke-linejoin="round"/>
<path d="M9.83251 11.5332L12.5638 8.80193L9.83251 6.07068M2.73126 8.80193H12.0175" stroke="#635BFF" stroke-width="1.14" stroke-linecap="round" stroke-linejoin="round"/>
</svg>
