<svg width="132" height="42" viewBox="0 0 132 42" fill="none" xmlns="http://www.w3.org/2000/svg">
<path fill-rule="evenodd" clip-rule="evenodd" d="M1.61754 41.4818L1.59998 21.8686L22.965 0.50354L42.6 0.503554L42.6 20.1385L21.2349 41.5035L1.61754 41.4818Z" fill="#635BFF"/>
<path d="M52.9528 33.0035V9.14899H61.8983C63.7309 9.14899 65.2684 9.49066 66.5108 10.174C67.761 10.8573 68.7044 11.7969 69.3412 12.9927C69.9857 14.1808 70.3079 15.5319 70.3079 17.0462C70.3079 18.5759 69.9857 19.9348 69.3412 21.1229C68.6967 22.3109 67.7454 23.2466 66.4875 23.93C65.2295 24.6055 63.6804 24.9433 61.84 24.9433H55.9113V21.3908H61.2576C62.3292 21.3908 63.2067 21.2044 63.89 20.8317C64.5734 20.4589 65.0781 19.9464 65.4042 19.2942C65.7381 18.6419 65.9051 17.8926 65.9051 17.0462C65.9051 16.1997 65.7381 15.4543 65.4042 14.8098C65.0781 14.1653 64.5695 13.6644 63.8784 13.3072C63.1951 12.9423 62.3137 12.7598 61.2344 12.7598H57.2741V33.0035H52.9528ZM73.8751 33.0035V15.1126H78.0915V33.0035H73.8751ZM75.9949 12.5734C75.3271 12.5734 74.7525 12.3521 74.2711 11.9095C73.7896 11.4591 73.5489 10.9194 73.5489 10.2905C73.5489 9.65372 73.7896 9.11405 74.2711 8.67143C74.7525 8.22105 75.3271 7.99586 75.9949 7.99586C76.6705 7.99586 77.2451 8.22105 77.7188 8.67143C78.2002 9.11405 78.441 9.65372 78.441 10.2905C78.441 10.9194 78.2002 11.4591 77.7188 11.9095C77.2451 12.3521 76.6705 12.5734 75.9949 12.5734ZM86.6439 22.5206V33.0035H82.4274V15.1126H86.4575V18.1527H86.6672C87.0787 17.151 87.7349 16.3551 88.6356 15.7649C89.5442 15.1747 90.6662 14.8797 92.0018 14.8797C93.2365 14.8797 94.312 15.1437 95.2283 15.6717C96.1523 16.1997 96.8667 16.9646 97.3714 17.9663C97.8839 18.968 98.1363 20.1833 98.1285 21.6121V33.0035H93.9121V22.2643C93.9121 21.0685 93.6015 20.1328 92.9802 19.4572C92.3668 18.7817 91.5165 18.4439 90.4294 18.4439C89.6917 18.4439 89.0355 18.6069 88.4609 18.9331C87.8941 19.2515 87.4476 19.7135 87.1214 20.3192C86.8031 20.9248 86.6439 21.6587 86.6439 22.5206ZM110.551 33.0035V15.1126H114.767V33.0035H110.551ZM112.671 12.5734C112.003 12.5734 111.428 12.3521 110.947 11.9095C110.465 11.4591 110.225 10.9194 110.225 10.2905C110.225 9.65372 110.465 9.11405 110.947 8.67143C111.428 8.22105 112.003 7.99586 112.671 7.99586C113.346 7.99586 113.921 8.22105 114.395 8.67143C114.876 9.11405 115.117 9.65372 115.117 10.2905C115.117 10.9194 114.876 11.4591 114.395 11.9095C113.921 12.3521 113.346 12.5734 112.671 12.5734ZM128.037 15.1126V18.374H117.752V15.1126H128.037ZM120.291 10.8263H124.508V27.6223C124.508 28.1891 124.593 28.624 124.764 28.9268C124.943 29.2219 125.176 29.4238 125.463 29.5325C125.75 29.6412 126.069 29.6956 126.418 29.6956C126.682 29.6956 126.923 29.6762 127.14 29.6373C127.365 29.5985 127.536 29.5636 127.653 29.5325L128.363 32.8288C128.138 32.9065 127.816 32.9919 127.396 33.0851C126.985 33.1783 126.48 33.2326 125.882 33.2481C124.826 33.2792 123.875 33.12 123.028 32.7706C122.182 32.4134 121.51 31.8621 121.013 31.1166C120.524 30.3712 120.283 29.4393 120.291 28.3212V10.8263Z" fill="#30313D"/>
</svg>
