<svg width="16" height="17" viewBox="0 0 16 17" fill="none" xmlns="http://www.w3.org/2000/svg">
<path d="M14 7.12036C14 10.5354 10.7869 13.5934 9.06335 14.9881C8.4357 15.496 7.5643 15.496 6.93665 14.9881C5.21308 13.5934 2 10.5354 2 7.12036C2 5.52906 2.63214 4.00294 3.75736 2.87772C4.88258 1.7525 6.4087 1.12036 8 1.12036C9.5913 1.12036 11.1174 1.7525 12.2426 2.87772C13.3679 4.00294 14 5.52906 14 7.12036Z" fill="#716E90"/>
<path d="M8 9.12036C9.10457 9.12036 10 8.22493 10 7.12036C10 6.01579 9.10457 5.12036 8 5.12036C6.89543 5.12036 6 6.01579 6 7.12036C6 8.22493 6.89543 9.12036 8 9.12036Z" fill="white"/>
</svg>
