<svg width="116" height="146" viewBox="0 0 116 146" fill="none" xmlns="http://www.w3.org/2000/svg">
<path fill-rule="evenodd" clip-rule="evenodd" d="M21.2238 74.08L21.1923 38.8644L59.5532 0.50354L94.8077 0.503565L94.8078 35.7581L56.4468 74.119L21.2238 74.08Z" fill="#635BFF"/>
<path d="M3.45881 145.119V110.21H16.5497C19.2315 110.21 21.4815 110.71 23.2997 111.71C25.1293 112.71 26.5099 114.085 27.4418 115.835C28.3849 117.574 28.8565 119.551 28.8565 121.767C28.8565 124.005 28.3849 125.994 27.4418 127.733C26.4986 129.471 25.1065 130.841 23.2656 131.841C21.4247 132.829 19.1577 133.324 16.4645 133.324H7.78835V128.125H15.6122C17.1804 128.125 18.4645 127.852 19.4645 127.307C20.4645 126.761 21.2031 126.011 21.6804 125.057C22.169 124.102 22.4134 123.005 22.4134 121.767C22.4134 120.528 22.169 119.437 21.6804 118.494C21.2031 117.551 20.4588 116.818 19.4474 116.295C18.4474 115.761 17.1577 115.494 15.5781 115.494H9.78267V145.119H3.45881ZM34.0767 145.119V118.937H40.2472V145.119H34.0767ZM37.179 115.221C36.2017 115.221 35.3608 114.897 34.6562 114.25C33.9517 113.591 33.5994 112.801 33.5994 111.88C33.5994 110.949 33.9517 110.159 34.6562 109.511C35.3608 108.852 36.2017 108.522 37.179 108.522C38.1676 108.522 39.0085 108.852 39.7017 109.511C40.4063 110.159 40.7585 110.949 40.7585 111.88C40.7585 112.801 40.4063 113.591 39.7017 114.25C39.0085 114.897 38.1676 115.221 37.179 115.221ZM52.7628 129.778V145.119H46.5923V118.937H52.4901V123.386H52.7969C53.3991 121.92 54.3594 120.755 55.6776 119.892C57.0071 119.028 58.6491 118.596 60.6037 118.596C62.4105 118.596 63.9844 118.983 65.3253 119.755C66.6776 120.528 67.723 121.647 68.4616 123.113C69.2116 124.579 69.581 126.358 69.5696 128.449V145.119H63.3991V129.403C63.3991 127.653 62.9446 126.284 62.0355 125.295C61.1378 124.307 59.8935 123.812 58.3026 123.812C57.223 123.812 56.2628 124.051 55.4219 124.528C54.5923 124.994 53.9389 125.67 53.4616 126.557C52.9957 127.443 52.7628 128.517 52.7628 129.778ZM94.3452 110.21V145.119H88.0213V110.21H94.3452ZM113.994 118.937V123.71H98.9432V118.937H113.994ZM102.659 112.664H108.83V137.244C108.83 138.074 108.955 138.71 109.205 139.153C109.466 139.585 109.807 139.88 110.227 140.039C110.648 140.199 111.114 140.278 111.625 140.278C112.011 140.278 112.364 140.25 112.682 140.193C113.011 140.136 113.261 140.085 113.432 140.039L114.472 144.863C114.142 144.977 113.67 145.102 113.057 145.238C112.455 145.375 111.716 145.454 110.841 145.477C109.295 145.522 107.903 145.289 106.665 144.778C105.426 144.255 104.443 143.449 103.716 142.358C103 141.267 102.648 139.903 102.659 138.267V112.664Z" fill="#30313D"/>
</svg>
