<svg width="23" height="23" viewBox="0 0 23 23" fill="none" xmlns="http://www.w3.org/2000/svg">
<path fill-rule="evenodd" clip-rule="evenodd" d="M16.5927 6.80841C16.5927 9.55235 14.4297 11.7767 11.7615 11.7767C9.09329 11.7767 6.93028 9.55235 6.93028 6.80841C6.93028 4.06448 9.09329 1.84009 11.7615 1.84009C14.4297 1.84009 16.5927 4.06448 16.5927 6.80841ZM15.9082 14.576C17.4443 14.8871 18.4472 15.3945 18.877 16.213C19.1998 16.8518 19.1998 17.6123 18.877 18.2511C18.4472 19.0696 17.4841 19.6098 15.8923 19.8881C15.183 20.0312 14.465 20.1241 13.7433 20.1664C13.0748 20.2401 12.4062 20.2401 11.7297 20.2401H10.5119C10.2572 20.2073 10.0105 20.191 9.7717 20.191C9.05002 20.1539 8.33186 20.0636 7.62273 19.9209C6.08661 19.6262 5.08376 19.1024 4.65396 18.2839C4.48805 17.9668 4.40058 17.6126 4.39927 17.2525C4.39581 16.8903 4.48064 16.5329 4.64601 16.213C5.06784 15.3945 6.07069 14.8625 7.62273 14.576C8.33498 14.4362 9.0556 14.346 9.77966 14.3059C11.1042 14.1992 12.4347 14.1992 13.7592 14.3059C14.4805 14.348 15.1983 14.4382 15.9082 14.576Z" fill="#BAC3CC"/>
</svg>
